name E:\3-PhD\Data\MocapData\ElaboratedData\009\pre\dynamicElaborations\RunN1\RunN1.mot
datacolumns 37
datarows 15
range 3.204 3.211
endheader

time	    ground_force1_vx	    ground_force1_vy	    ground_force1_vz	    ground_force1_px	    ground_force1_py	    ground_force1_pz	    ground_force2_vx	    ground_force2_vy	    ground_force2_vz	    ground_force2_px	    ground_force2_py	    ground_force2_pz	    ground_force3_vx	    ground_force3_vy	    ground_force3_vz	    ground_force3_px	    ground_force3_py	    ground_force3_pz	    ground_force4_vx	    ground_force4_vy	    ground_force4_vz	    ground_force4_px	    ground_force4_py	    ground_force4_pz	    ground_torque1_x	    ground_torque1_y	    ground_torque1_z	    ground_torque2_x	    ground_torque2_y	    ground_torque2_z	    ground_torque3_x	    ground_torque3_y	    ground_torque3_z	    ground_torque4_x	    ground_torque4_y	    ground_torque4_z	
3.204	          0.00000000	          0.00000000	          0.00000000	          0.00000000	          0.00000000	          0.00000000	        -36.71415774	        132.71788907	         35.08104794	         -0.92019699	          0.00000000	          0.36899334	       -314.84910557	       1796.49728340	         11.66418273	         -0.78239155	          0.00000000	          0.37878204	          0.00000000	          0.00000000	          0.00000000	          0.00000000	          0.00000000	          0.00000000	          0.00000000	          0.00000000	          0.00000000	         -0.00000000	         -0.60111247	          0.00000000	          0.00000000	          5.03114417	         -0.00000000	          0.00000000	          0.00000000	          0.00000000	
3.2045	          0.00000000	          0.00000000	          0.00000000	          0.00000000	          0.00000000	          0.00000000	        -35.56431216	        127.55342040	         34.17219011	         -0.92010917	          0.00000000	          0.36883780	       -314.13184081	       1802.42790358	         10.92207337	         -0.78176376	          0.00000000	          0.37878639	          0.00000000	          0.00000000	          0.00000000	          0.00000000	          0.00000000	          0.00000000	          0.00000000	          0.00000000	          0.00000000	         -0.00000000	         -0.58106519	          0.00000000	          0.00000000	          4.98891762	         -0.00000000	          0.00000000	          0.00000000	          0.00000000	
3.205	          0.00000000	          0.00000000	          0.00000000	          0.00000000	          0.00000000	          0.00000000	        -34.42354591	        122.47709944	         33.26127077	         -0.92001923	          0.00000000	          0.36867826	       -313.32333248	       1808.18262556	         10.17692379	         -0.78113805	          0.00000000	          0.37879134	          0.00000000	          0.00000000	          0.00000000	          0.00000000	          0.00000000	          0.00000000	          0.00000000	          0.00000000	          0.00000000	         -0.00000000	         -0.56125170	          0.00000000	          0.00000000	          4.94402029	         -0.00000000	          0.00000000	          0.00000000	          0.00000000	
3.2055	          0.00000000	          0.00000000	          0.00000000	          0.00000000	          0.00000000	          0.00000000	        -33.29301666	        117.49168164	         32.34976770	         -0.91992695	          0.00000000	          0.36851433	       -312.42349568	       1813.76440486	          9.43082976	         -0.78051459	          0.00000000	          0.37879678	          0.00000000	          0.00000000	          0.00000000	          0.00000000	          0.00000000	          0.00000000	          0.00000000	          0.00000000	          0.00000000	         -0.00000000	         -0.54168394	          0.00000000	          0.00000000	          4.89664804	         -0.00000000	          0.00000000	          0.00000000	          0.00000000	
3.206	          0.00000000	          0.00000000	          0.00000000	          0.00000000	          0.00000000	          0.00000000	        -32.17381309	        112.59965513	         31.43908289	         -0.91983204	          0.00000000	          0.36834559	       -311.43216583	       1819.17614967	          8.68574007	         -0.77989356	          0.00000000	          0.37880261	          0.00000000	          0.00000000	          0.00000000	          0.00000000	          0.00000000	          0.00000000	          0.00000000	          0.00000000	          0.00000000	         -0.00000000	         -0.52237488	          0.00000000	          0.00000000	          4.84699407	         -0.00000000	          0.00000000	          0.00000000	          0.00000000	
3.2065	          0.00000000	          0.00000000	          0.00000000	          0.00000000	          0.00000000	          0.00000000	        -31.06695174	        107.80324026	         30.53054173	         -0.91973420	          0.00000000	          0.36817156	       -310.34910813	       1824.42072492	          7.94344334	         -0.77927513	          0.00000000	          0.37880875	          0.00000000	          0.00000000	          0.00000000	          0.00000000	          0.00000000	          0.00000000	          0.00000000	          0.00000000	          0.00000000	         -0.00000000	         -0.50333703	          0.00000000	          0.00000000	          4.79524789	         -0.00000000	          0.00000000	          0.00000000	          0.00000000	
3.207	          0.00000000	          0.00000000	          0.00000000	          0.00000000	          0.00000000	          0.00000000	        -29.97338744	        103.10440768	         29.62539214	         -0.91963313	          0.00000000	          0.36799174	       -309.17402025	       1829.50095101	          7.20556323	         -0.77865947	          0.00000000	          0.37881510	          0.00000000	          0.00000000	          0.00000000	          0.00000000	          0.00000000	          0.00000000	          0.00000000	          0.00000000	          0.00000000	         -0.00000000	         -0.48458244	          0.00000000	          0.00000000	          4.74159086	         -0.00000000	          0.00000000	          0.00000000	          0.00000000	
3.2075	          0.00000000	          0.00000000	          0.00000000	          0.00000000	          0.00000000	          0.00000000	        -28.89402119	         98.50489529	         28.72480543	         -0.91952847	          0.00000000	          0.36780554	       -307.90653266	       1834.41960211	          6.47355795	         -0.77804676	          0.00000000	          0.37882159	          0.00000000	          0.00000000	          0.00000000	          0.00000000	          0.00000000	          0.00000000	          0.00000000	          0.00000000	          0.00000000	         -0.00000000	         -0.46612316	          0.00000000	          0.00000000	          4.68619309	         -0.00000000	          0.00000000	          0.00000000	          0.00000000	
3.208	          0.00000000	          0.00000000	          0.00000000	          0.00000000	          0.00000000	          0.00000000	        -27.82969568	         94.00621168	         27.82988017	         -0.91941987	          0.00000000	          0.36761233	       -306.54621731	       1839.17940638	          5.74871773	         -0.77743717	          0.00000000	          0.37882813	          0.00000000	          0.00000000	          0.00000000	          0.00000000	          0.00000000	          0.00000000	          0.00000000	          0.00000000	          0.00000000	         -0.00000000	         -0.44797085	          0.00000000	          0.00000000	          4.62921491	         -0.00000000	          0.00000000	          0.00000000	          0.00000000	
3.2085	          0.00000000	          0.00000000	          0.00000000	          0.00000000	          0.00000000	          0.00000000	        -26.78118859	         89.60963677	         26.94164658	         -0.91930693	          0.00000000	          0.36741138	       -305.09260697	       1843.78304261	          5.03216020	         -0.77683087	          0.00000000	          0.37883467	          0.00000000	          0.00000000	          0.00000000	          0.00000000	          0.00000000	          0.00000000	          0.00000000	          0.00000000	          0.00000000	         -0.00000000	         -0.43013629	          0.00000000	          0.00000000	          4.57080977	         -0.00000000	          0.00000000	          0.00000000	          0.00000000	
3.209	          0.00000000	          0.00000000	          0.00000000	          0.00000000	          0.00000000	          0.00000000	        -25.74921207	         85.31622919	         26.06106940	         -0.91918918	          0.00000000	          0.36720189	       -303.54521511	       1848.23313274	          4.32482921	         -0.77622804	          0.00000000	          0.37884115	          0.00000000	          0.00000000	          0.00000000	          0.00000000	          0.00000000	          0.00000000	          0.00000000	          0.00000000	          0.00000000	         -0.00000000	         -0.41262925	          0.00000000	          0.00000000	          4.51112409	         -0.00000000	          0.00000000	          0.00000000	          0.00000000	
3.2095	          0.00000000	          0.00000000	          0.00000000	          0.00000000	          0.00000000	          0.00000000	        -24.73441527	         81.12683661	         25.18904998	         -0.91906613	          0.00000000	          0.36698296	       -301.90354574	       1852.53223733	          3.62750055	         -0.77562885	          0.00000000	          0.37884750	          0.00000000	          0.00000000	          0.00000000	          0.00000000	          0.00000000	          0.00000000	          0.00000000	          0.00000000	          0.00000000	         -0.00000000	         -0.39545852	          0.00000000	          0.00000000	          4.45029417	         -0.00000000	          0.00000000	          0.00000000	          0.00000000	
3.21	          0.00000000	          0.00000000	          0.00000000	          0.00000000	          0.00000000	          0.00000000	        -23.73738671	         77.04210584	         24.32642833	         -0.91893720	          0.00000000	          0.36675358	       -300.16709662	       1856.68285693	          2.94079096	         -0.77503346	          0.00000000	          0.37885369	          0.00000000	          0.00000000	          0.00000000	          0.00000000	          0.00000000	          0.00000000	          0.00000000	          0.00000000	          0.00000000	         -0.00000000	         -0.37863195	          0.00000000	          0.00000000	          4.38844419	         -0.00000000	          0.00000000	          0.00000000	          0.00000000	
3.2105	          0.00000000	          0.00000000	          0.00000000	          0.00000000	          0.00000000	          0.00000000	        -22.75865671	         73.06249268	         23.47398518	         -0.91880176	          0.00000000	          0.36651260	       -298.33536898	       1860.68743305	          2.26516504	         -0.77444205	          0.00000000	          0.37885966	          0.00000000	          0.00000000	          0.00000000	          0.00000000	          0.00000000	          0.00000000	          0.00000000	          0.00000000	          0.00000000	         -0.00000000	         -0.36215654	          0.00000000	          0.00000000	          4.32568813	         -0.00000000	          0.00000000	          0.00000000	          0.00000000	
3.211	          0.00000000	          0.00000000	          0.00000000	          0.00000000	          0.00000000	          0.00000000	        -21.79869971	         69.18827153	         22.63244404	         -0.91865907	          0.00000000	          0.36625873	       -296.40788791	       1864.54834586	          1.60094042	         -0.77385478	          0.00000000	          0.37886538	          0.00000000	          0.00000000	          0.00000000	          0.00000000	          0.00000000	          0.00000000	          0.00000000	          0.00000000	          0.00000000	         -0.00000000	         -0.34603840	          0.00000000	          0.00000000	          4.26213302	         -0.00000000	          0.00000000	          0.00000000	          0.00000000	
